<svg xmlns="http://www.w3.org/2000/svg" width="1400" height="530" viewBox="0 0 1400 530" role="img" aria-labelledby="title desc">
<title id="title">Rawly — local photo and video tools</title>
<desc id="desc">An oversized black Rawly wordmark on white, with a blue accent and diagonal cut in the letter a. Open source tools for Codex and Claude Code.</desc>
<rect width="1400" height="530" fill="#FAFAFC"/>
<defs><clipPath id="a"><path d="M271.68 241.54 204.83 234.50Q208.61 216.97 215.75 206.92Q222.88 196.86 236.28 189.47Q245.91 184.15 262.75 181.22Q279.59 178.30 299.18 178.30Q330.63 178.30 349.70 181.83Q368.78 185.35 381.50 196.52Q390.43 204.25 395.59 218.43Q400.74 232.61 400.74 245.50V326.09Q400.74 338.98 402.38 346.29Q404.01 353.59 409.51 364.93H343.86Q339.91 357.89 338.71 354.19Q337.50 350.50 336.30 342.59Q322.55 355.82 308.98 361.50Q290.42 369.06 265.84 369.06Q233.19 369.06 216.26 353.93Q199.33 338.81 199.33 316.64Q199.33 295.85 211.54 282.44Q223.74 269.04 256.56 262.51Q295.91 254.60 307.60 251.43Q319.29 248.25 332.35 243.09Q332.35 230.20 327.02 225.05Q321.69 219.89 308.29 219.89Q291.10 219.89 282.51 225.39Q275.81 229.69 271.68 241.54ZM332.35 278.32Q317.91 283.48 302.27 287.43Q280.96 293.10 275.29 298.60Q269.45 304.27 269.45 311.49Q269.45 319.74 275.21 324.98Q280.96 330.22 292.13 330.22Q303.82 330.22 313.87 324.55Q323.93 318.88 328.14 310.71Q332.35 302.55 332.35 289.49Z"/></clipPath></defs>
<g transform="translate(70 0) scale(1.3066 1) translate(-70 0)">
<path d="M70.00 182.43H135.47V212.33Q144.93 192.91 154.98 185.61Q165.03 178.30 179.81 178.30Q195.28 178.30 213.67 187.93L192.01 237.76Q179.64 232.61 172.42 232.61Q158.67 232.61 151.11 243.95Q140.29 259.93 140.29 303.75V364.93H70.00ZM271.68 241.54 204.83 234.50Q208.61 216.97 215.75 206.92Q222.88 196.86 236.28 189.47Q245.91 184.15 262.75 181.22Q279.59 178.30 299.18 178.30Q330.63 178.30 349.70 181.83Q368.78 185.35 381.50 196.52Q390.43 204.25 395.59 218.43Q400.74 232.61 400.74 245.50V326.09Q400.74 338.98 402.38 346.29Q404.01 353.59 409.51 364.93H343.86Q339.91 357.89 338.71 354.19Q337.50 350.50 336.30 342.59Q322.55 355.82 308.98 361.50Q290.42 369.06 265.84 369.06Q233.19 369.06 216.26 353.93Q199.33 338.81 199.33 316.64Q199.33 295.85 211.54 282.44Q223.74 269.04 256.56 262.51Q295.91 254.60 307.60 251.43Q319.29 248.25 332.35 243.09Q332.35 230.20 327.02 225.05Q321.69 219.89 308.29 219.89Q291.10 219.89 282.51 225.39Q275.81 229.69 271.68 241.54ZM332.35 278.32Q317.91 283.48 302.27 287.43Q280.96 293.10 275.29 298.60Q269.45 304.27 269.45 311.49Q269.45 319.74 275.21 324.98Q280.96 330.22 292.13 330.22Q303.82 330.22 313.87 324.55Q323.93 318.88 328.14 310.71Q332.35 302.55 332.35 289.49ZM404.46 182.43H472.16L501.55 297.40L538.67 182.43H601.74L640.23 297.40L669.62 182.43H736.81L669.62 364.93H607.41L570.46 255.12L534.72 364.93H472.16ZM742.07 113.00H812.19V364.93H742.07ZM818.99 182.43H892.89L930.52 303.93L965.41 182.43H1034.32L961.97 377.48Q949.60 410.82 936.71 422.50Q918.49 439.00 881.20 439.00Q866.08 439.00 834.46 434.88L828.96 386.07Q844.08 390.88 862.64 390.88Q875.02 390.88 882.66 385.21Q890.31 379.54 895.64 364.93Z" fill="#101114"/>
<g clip-path="url(#a)"><path d="M 194.33452820242485 354.6640864281555 L 354.8624775962045 277.44528624143385 V 374.0569319978914 H 194.33452820242485 Z" fill="#0054FF"/><path d="M 194.33452820242485 339.6640864281555 L 414.5074327886135 233.75425832672067 L 414.5074327886135 247.75425832672067 L 194.33452820242485 353.6640864281555 Z" fill="#FAFAFC"/></g></g>
<path aria-label="LOCAL MEDIA TOOLS" d="M75.44 40.05V47.38H79.52V44.94Q79.52 44.72 79.61 44.62Q79.70 44.53 79.84 44.53Q79.97 44.53 80.06 44.62Q80.14 44.71 80.14 44.94V48.00H73.35Q73.13 48.00 73.03 47.91Q72.94 47.82 72.94 47.69Q72.94 47.55 73.03 47.47Q73.13 47.38 73.35 47.38H74.81V40.05H73.35Q73.13 40.05 73.03 39.96Q72.94 39.88 72.94 39.74Q72.94 39.60 73.03 39.51Q73.13 39.43 73.35 39.43H76.90Q77.12 39.43 77.21 39.51Q77.31 39.60 77.31 39.74Q77.31 39.88 77.21 39.96Q77.12 40.05 76.90 40.05ZM90.26 43.74Q90.26 44.97 89.77 46.02Q89.27 47.07 88.39 47.66Q87.52 48.24 86.51 48.24Q85.03 48.24 83.89 46.98Q82.76 45.71 82.76 43.74Q82.76 41.75 83.89 40.49Q85.03 39.23 86.51 39.23Q87.52 39.23 88.39 39.82Q89.26 40.40 89.76 41.45Q90.26 42.50 90.26 43.74ZM89.64 43.74Q89.64 42.24 88.77 41.04Q87.90 39.85 86.51 39.85Q85.22 39.85 84.30 40.99Q83.38 42.13 83.38 43.74Q83.38 45.45 84.34 46.54Q85.30 47.63 86.51 47.63Q87.90 47.63 88.77 46.44Q89.64 45.25 89.64 43.74ZM99.21 40.27V39.84Q99.21 39.62 99.29 39.53Q99.38 39.43 99.52 39.43Q99.66 39.43 99.74 39.53Q99.83 39.62 99.83 39.84V41.55Q99.83 41.77 99.74 41.87Q99.66 41.96 99.52 41.96Q99.39 41.96 99.31 41.88Q99.22 41.79 99.21 41.59Q99.17 40.98 98.54 40.50Q97.69 39.85 96.61 39.85Q95.90 39.85 95.27 40.16Q94.80 40.39 94.52 40.72Q94.04 41.29 93.75 41.99Q93.55 42.50 93.55 43.14V44.22Q93.55 45.60 94.54 46.61Q95.54 47.63 96.86 47.63Q97.65 47.63 98.28 47.28Q98.90 46.94 99.49 46.24Q99.61 46.09 99.77 46.09Q99.90 46.09 99.98 46.17Q100.06 46.25 100.06 46.37Q100.06 46.54 99.74 46.89Q99.14 47.56 98.39 47.90Q97.64 48.24 96.87 48.24Q96.21 48.24 95.52 47.99Q94.99 47.79 94.65 47.52Q94.30 47.26 93.80 46.63Q93.30 46.01 93.12 45.48Q92.93 44.95 92.93 44.31V43.06Q92.93 42.15 93.42 41.20Q93.91 40.25 94.75 39.74Q95.60 39.23 96.59 39.23Q98.11 39.23 99.21 40.27ZM108.53 45.14H104.49L103.66 47.38H104.84Q105.06 47.38 105.15 47.47Q105.25 47.55 105.25 47.69Q105.25 47.82 105.15 47.91Q105.06 48.00 104.84 48.00H102.54Q102.32 48.00 102.22 47.91Q102.13 47.82 102.13 47.69Q102.13 47.55 102.22 47.47Q102.32 47.38 102.54 47.38H103.02L105.73 40.05H103.92Q103.70 40.05 103.60 39.96Q103.51 39.88 103.51 39.74Q103.51 39.60 103.60 39.51Q103.70 39.43 103.92 39.43H107.01L110.02 47.38H110.49Q110.71 47.38 110.81 47.47Q110.90 47.55 110.90 47.69Q110.90 47.82 110.81 47.91Q110.71 48.00 110.49 48.00H108.20Q107.97 48.00 107.88 47.91Q107.78 47.82 107.78 47.69Q107.78 47.55 107.88 47.47Q107.97 47.38 108.20 47.38H109.37ZM108.30 44.52 106.60 40.05H106.37L104.72 44.52ZM115.44 40.05V47.38H119.53V44.94Q119.53 44.72 119.62 44.62Q119.70 44.53 119.84 44.53Q119.97 44.53 120.06 44.62Q120.15 44.71 120.15 44.94V48.00H113.35Q113.13 48.00 113.04 47.91Q112.94 47.82 112.94 47.69Q112.94 47.55 113.04 47.47Q113.13 47.38 113.35 47.38H114.82V40.05H113.35Q113.13 40.05 113.04 39.96Q112.94 39.88 112.94 39.74Q112.94 39.60 113.04 39.51Q113.13 39.43 113.35 39.43H116.91Q117.13 39.43 117.22 39.51Q117.32 39.60 117.32 39.74Q117.32 39.88 117.22 39.96Q117.13 40.05 116.91 40.05ZM136.92 45.43H136.21L133.85 40.05H133.73V47.38H134.87Q135.08 47.38 135.18 47.47Q135.28 47.55 135.28 47.69Q135.28 47.82 135.18 47.91Q135.08 48.00 134.87 48.00H132.59Q132.38 48.00 132.28 47.91Q132.18 47.82 132.18 47.69Q132.18 47.55 132.28 47.47Q132.38 47.38 132.59 47.38H133.11V40.05H132.73Q132.51 40.05 132.41 39.96Q132.32 39.88 132.32 39.74Q132.32 39.60 132.41 39.51Q132.51 39.43 132.73 39.43H134.24L136.56 44.73L138.86 39.43H140.37Q140.59 39.43 140.69 39.51Q140.78 39.60 140.78 39.74Q140.78 39.88 140.69 39.96Q140.59 40.05 140.37 40.05H139.98V47.38H140.50Q140.72 47.38 140.82 47.47Q140.92 47.55 140.92 47.69Q140.92 47.82 140.82 47.91Q140.72 48.00 140.50 48.00H138.23Q138.01 48.00 137.92 47.91Q137.82 47.82 137.82 47.69Q137.82 47.55 137.91 47.47Q138.01 47.38 138.23 47.38H139.37V40.05H139.24ZM144.51 43.86V47.38H149.24V45.57Q149.24 45.35 149.32 45.25Q149.41 45.16 149.55 45.16Q149.69 45.16 149.77 45.25Q149.85 45.35 149.85 45.57V48.00H143.06Q142.85 48.00 142.75 47.91Q142.65 47.82 142.65 47.69Q142.65 47.55 142.75 47.47Q142.85 47.38 143.06 47.38H143.89V40.05H143.06Q142.85 40.05 142.75 39.96Q142.65 39.88 142.65 39.74Q142.65 39.60 142.75 39.51Q142.85 39.43 143.06 39.43H149.53V41.55Q149.53 41.77 149.45 41.86Q149.36 41.96 149.22 41.96Q149.09 41.96 149.00 41.86Q148.92 41.77 148.92 41.55V40.05H144.51V43.25H146.71V42.55Q146.71 42.33 146.80 42.24Q146.89 42.14 147.03 42.14Q147.16 42.14 147.25 42.24Q147.33 42.33 147.33 42.55V44.56Q147.33 44.78 147.25 44.87Q147.16 44.97 147.03 44.97Q146.89 44.97 146.80 44.87Q146.71 44.78 146.71 44.56V43.86ZM154.10 47.38V40.05H153.58Q153.36 40.05 153.26 39.96Q153.17 39.88 153.17 39.74Q153.17 39.60 153.26 39.51Q153.36 39.43 153.58 39.43H156.89Q157.67 39.43 158.31 39.75Q158.95 40.08 159.28 40.49Q159.86 41.18 160.16 41.96Q160.38 42.52 160.38 43.29V44.14Q160.38 45.08 159.96 45.97Q159.54 46.86 158.57 47.52Q157.84 48.00 156.89 48.00H153.58Q153.36 48.00 153.26 47.91Q153.17 47.82 153.17 47.69Q153.17 47.55 153.26 47.47Q153.36 47.38 153.58 47.38ZM154.71 47.38H156.95Q157.72 47.38 158.40 46.88Q159.08 46.37 159.42 45.67Q159.76 44.96 159.76 44.27V43.16Q159.76 42.59 159.58 42.14Q159.31 41.49 158.83 40.90Q158.57 40.58 158.05 40.31Q157.54 40.05 156.95 40.05H154.71ZM166.83 40.05V47.38H168.93Q169.15 47.38 169.25 47.47Q169.34 47.55 169.34 47.69Q169.34 47.82 169.25 47.91Q169.15 48.00 168.93 48.00H164.10Q163.88 48.00 163.79 47.91Q163.69 47.82 163.69 47.69Q163.69 47.55 163.79 47.47Q163.88 47.38 164.10 47.38H166.21V40.05H164.10Q163.88 40.05 163.79 39.96Q163.69 39.88 163.69 39.74Q163.69 39.60 163.79 39.51Q163.88 39.43 164.10 39.43H168.93Q169.15 39.43 169.25 39.51Q169.34 39.60 169.34 39.74Q169.34 39.88 169.25 39.96Q169.15 40.05 168.93 40.05ZM178.54 45.14H174.50L173.67 47.38H174.85Q175.07 47.38 175.16 47.47Q175.26 47.55 175.26 47.69Q175.26 47.82 175.16 47.91Q175.07 48.00 174.85 48.00H172.55Q172.33 48.00 172.23 47.91Q172.14 47.82 172.14 47.69Q172.14 47.55 172.23 47.47Q172.33 47.38 172.55 47.38H173.03L175.74 40.05H173.93Q173.71 40.05 173.61 39.96Q173.52 39.88 173.52 39.74Q173.52 39.60 173.61 39.51Q173.71 39.43 173.93 39.43H177.02L180.03 47.38H180.50Q180.72 47.38 180.82 47.47Q180.91 47.55 180.91 47.69Q180.91 47.82 180.82 47.91Q180.72 48.00 180.50 48.00H178.21Q177.98 48.00 177.89 47.91Q177.79 47.82 177.79 47.69Q177.79 47.55 177.89 47.47Q177.98 47.38 178.21 47.38H179.38ZM178.31 44.52 176.61 40.05H176.38L174.73 44.52ZM196.82 40.05V47.38H198.42Q198.64 47.38 198.73 47.47Q198.83 47.55 198.83 47.69Q198.83 47.82 198.73 47.91Q198.64 48.00 198.42 48.00H194.60Q194.38 48.00 194.29 47.91Q194.19 47.82 194.19 47.69Q194.19 47.55 194.29 47.47Q194.38 47.38 194.60 47.38H196.20V40.05H193.68V42.18Q193.68 42.40 193.60 42.50Q193.51 42.59 193.37 42.59Q193.24 42.59 193.15 42.50Q193.06 42.40 193.06 42.18V39.43H199.96V42.18Q199.96 42.40 199.87 42.50Q199.79 42.59 199.65 42.59Q199.51 42.59 199.43 42.50Q199.34 42.40 199.34 42.18V40.05ZM210.28 43.74Q210.28 44.97 209.78 46.02Q209.28 47.07 208.41 47.66Q207.53 48.24 206.53 48.24Q205.04 48.24 203.91 46.98Q202.78 45.71 202.78 43.74Q202.78 41.75 203.91 40.49Q205.04 39.23 206.53 39.23Q207.53 39.23 208.41 39.82Q209.28 40.40 209.78 41.45Q210.28 42.50 210.28 43.74ZM209.66 43.74Q209.66 42.24 208.79 41.04Q207.92 39.85 206.53 39.85Q205.23 39.85 204.32 40.99Q203.40 42.13 203.40 43.74Q203.40 45.45 204.36 46.54Q205.32 47.63 206.53 47.63Q207.92 47.63 208.79 46.44Q209.66 45.25 209.66 43.74ZM220.28 43.74Q220.28 44.97 219.78 46.02Q219.29 47.07 218.41 47.66Q217.54 48.24 216.53 48.24Q215.05 48.24 213.91 46.98Q212.78 45.71 212.78 43.74Q212.78 41.75 213.91 40.49Q215.05 39.23 216.53 39.23Q217.54 39.23 218.41 39.82Q219.28 40.40 219.78 41.45Q220.28 42.50 220.28 43.74ZM219.66 43.74Q219.66 42.24 218.79 41.04Q217.92 39.85 216.53 39.85Q215.24 39.85 214.32 40.99Q213.40 42.13 213.40 43.74Q213.40 45.45 214.36 46.54Q215.32 47.63 216.53 47.63Q217.92 47.63 218.79 46.44Q219.66 45.25 219.66 43.74ZM225.46 40.05V47.38H229.54V44.94Q229.54 44.72 229.63 44.62Q229.72 44.53 229.86 44.53Q229.99 44.53 230.08 44.62Q230.17 44.71 230.17 44.94V48.00H223.37Q223.15 48.00 223.05 47.91Q222.96 47.82 222.96 47.69Q222.96 47.55 223.05 47.47Q223.15 47.38 223.37 47.38H224.83V40.05H223.37Q223.15 40.05 223.05 39.96Q222.96 39.88 222.96 39.74Q222.96 39.60 223.05 39.51Q223.15 39.43 223.37 39.43H226.92Q227.14 39.43 227.24 39.51Q227.33 39.60 227.33 39.74Q227.33 39.88 227.24 39.96Q227.14 40.05 226.92 40.05ZM238.73 40.05V39.84Q238.73 39.62 238.81 39.53Q238.89 39.43 239.03 39.43Q239.17 39.43 239.26 39.53Q239.34 39.62 239.34 39.84V41.41Q239.34 41.63 239.26 41.72Q239.17 41.82 239.03 41.82Q238.90 41.82 238.82 41.73Q238.73 41.64 238.73 41.44Q238.69 40.83 238.09 40.34Q237.49 39.85 236.53 39.85Q235.51 39.85 234.91 40.37Q234.31 40.90 234.31 41.61Q234.31 41.97 234.48 42.27Q234.65 42.57 234.92 42.76Q235.20 42.95 235.55 43.06Q235.91 43.17 236.65 43.30Q237.90 43.50 238.38 43.72Q239.02 44.00 239.34 44.51Q239.67 45.01 239.67 45.70Q239.67 46.75 238.83 47.50Q237.99 48.24 236.56 48.24Q234.95 48.24 233.99 47.24V47.59Q233.99 47.81 233.91 47.90Q233.83 48.00 233.69 48.00Q233.55 48.00 233.47 47.90Q233.38 47.81 233.38 47.59V45.89Q233.38 45.66 233.46 45.57Q233.55 45.47 233.69 45.47Q233.82 45.47 233.90 45.56Q233.99 45.65 233.99 45.85Q234.03 46.52 234.72 47.07Q235.40 47.63 236.56 47.63Q237.71 47.63 238.38 47.05Q239.05 46.47 239.05 45.68Q239.05 45.19 238.80 44.82Q238.54 44.44 238.04 44.22Q237.69 44.07 236.57 43.88Q235.04 43.62 234.37 43.09Q233.69 42.57 233.69 41.59Q233.69 40.62 234.47 39.93Q235.24 39.23 236.51 39.23Q237.79 39.23 238.73 40.05Z" fill="#515660"/>
<path aria-label="OPEN SOURCE" d="M1212.26 43.74Q1212.26 44.97 1211.76 46.02Q1211.27 47.07 1210.39 47.66Q1209.52 48.24 1208.51 48.24Q1207.02 48.24 1205.89 46.98Q1204.76 45.71 1204.76 43.74Q1204.76 41.75 1205.89 40.49Q1207.02 39.23 1208.51 39.23Q1209.52 39.23 1210.39 39.82Q1211.26 40.40 1211.76 41.45Q1212.26 42.50 1212.26 43.74ZM1211.64 43.74Q1211.64 42.24 1210.77 41.04Q1209.90 39.85 1208.51 39.85Q1207.22 39.85 1206.30 40.99Q1205.38 42.13 1205.38 43.74Q1205.38 45.45 1206.34 46.54Q1207.30 47.63 1208.51 47.63Q1209.90 47.63 1210.77 46.44Q1211.64 45.25 1211.64 43.74ZM1216.47 44.48V47.38H1218.57Q1218.79 47.38 1218.89 47.47Q1218.99 47.55 1218.99 47.69Q1218.99 47.82 1218.89 47.91Q1218.79 48.00 1218.57 48.00H1215.02Q1214.80 48.00 1214.71 47.91Q1214.61 47.82 1214.61 47.69Q1214.61 47.55 1214.71 47.47Q1214.80 47.38 1215.02 47.38H1215.85V40.05H1215.02Q1214.80 40.05 1214.71 39.96Q1214.61 39.88 1214.61 39.74Q1214.61 39.60 1214.71 39.51Q1214.80 39.43 1215.02 39.43H1218.60Q1219.86 39.43 1220.67 40.18Q1221.47 40.92 1221.47 41.93Q1221.47 42.52 1221.21 43.00Q1220.95 43.47 1220.58 43.74Q1220.03 44.15 1219.45 44.35Q1219.02 44.48 1218.39 44.48ZM1216.47 43.87H1218.43Q1219.11 43.87 1219.71 43.57Q1220.30 43.26 1220.58 42.82Q1220.85 42.38 1220.85 41.93Q1220.85 41.20 1220.23 40.62Q1219.61 40.05 1218.66 40.05H1216.47ZM1225.10 43.86V47.38H1229.83V45.57Q1229.83 45.35 1229.92 45.25Q1230.00 45.16 1230.14 45.16Q1230.28 45.16 1230.36 45.25Q1230.45 45.35 1230.45 45.57V48.00H1223.66Q1223.44 48.00 1223.34 47.91Q1223.25 47.82 1223.25 47.69Q1223.25 47.55 1223.34 47.47Q1223.44 47.38 1223.66 47.38H1224.49V40.05H1223.66Q1223.44 40.05 1223.34 39.96Q1223.25 39.88 1223.25 39.74Q1223.25 39.60 1223.34 39.51Q1223.44 39.43 1223.66 39.43H1230.12V41.55Q1230.12 41.77 1230.04 41.86Q1229.96 41.96 1229.82 41.96Q1229.68 41.96 1229.59 41.86Q1229.51 41.77 1229.51 41.55V40.05H1225.10V43.25H1227.31V42.55Q1227.31 42.33 1227.39 42.24Q1227.48 42.14 1227.62 42.14Q1227.75 42.14 1227.84 42.24Q1227.93 42.33 1227.93 42.55V44.56Q1227.93 44.78 1227.84 44.87Q1227.75 44.97 1227.62 44.97Q1227.48 44.97 1227.39 44.87Q1227.31 44.78 1227.31 44.56V43.86ZM1239.42 48.00H1238.63L1234.09 40.33V47.38H1235.23Q1235.46 47.38 1235.55 47.47Q1235.65 47.55 1235.65 47.69Q1235.65 47.82 1235.55 47.91Q1235.46 48.00 1235.23 48.00H1232.97Q1232.74 48.00 1232.64 47.91Q1232.55 47.82 1232.55 47.69Q1232.55 47.55 1232.64 47.47Q1232.74 47.38 1232.97 47.38H1233.48V40.05H1232.65Q1232.43 40.05 1232.34 39.96Q1232.24 39.88 1232.24 39.74Q1232.24 39.60 1232.34 39.51Q1232.43 39.43 1232.65 39.43H1234.26L1238.80 47.11V40.05H1237.67Q1237.45 40.05 1237.35 39.96Q1237.26 39.88 1237.26 39.74Q1237.26 39.60 1237.35 39.51Q1237.44 39.43 1237.67 39.43H1239.94Q1240.16 39.43 1240.25 39.51Q1240.35 39.60 1240.35 39.74Q1240.35 39.88 1240.25 39.96Q1240.16 40.05 1239.94 40.05H1239.42ZM1257.21 40.05V39.84Q1257.21 39.62 1257.29 39.53Q1257.38 39.43 1257.52 39.43Q1257.66 39.43 1257.74 39.53Q1257.82 39.62 1257.82 39.84V41.41Q1257.82 41.63 1257.74 41.72Q1257.66 41.82 1257.52 41.82Q1257.38 41.82 1257.30 41.73Q1257.22 41.64 1257.21 41.44Q1257.17 40.83 1256.58 40.34Q1255.98 39.85 1255.01 39.85Q1253.99 39.85 1253.39 40.37Q1252.79 40.90 1252.79 41.61Q1252.79 41.97 1252.96 42.27Q1253.13 42.57 1253.41 42.76Q1253.69 42.95 1254.04 43.06Q1254.39 43.17 1255.14 43.30Q1256.39 43.50 1256.86 43.72Q1257.50 44.00 1257.83 44.51Q1258.15 45.01 1258.15 45.70Q1258.15 46.75 1257.31 47.50Q1256.47 48.24 1255.04 48.24Q1253.44 48.24 1252.48 47.24V47.59Q1252.48 47.81 1252.39 47.90Q1252.31 48.00 1252.17 48.00Q1252.04 48.00 1251.95 47.90Q1251.86 47.81 1251.86 47.59V45.89Q1251.86 45.66 1251.95 45.57Q1252.03 45.47 1252.17 45.47Q1252.30 45.47 1252.39 45.56Q1252.47 45.65 1252.48 45.85Q1252.51 46.52 1253.20 47.07Q1253.88 47.63 1255.04 47.63Q1256.20 47.63 1256.87 47.05Q1257.54 46.47 1257.54 45.68Q1257.54 45.19 1257.28 44.82Q1257.03 44.44 1256.52 44.22Q1256.17 44.07 1255.06 43.88Q1253.52 43.62 1252.85 43.09Q1252.18 42.57 1252.18 41.59Q1252.18 40.62 1252.95 39.93Q1253.72 39.23 1254.99 39.23Q1256.28 39.23 1257.21 40.05ZM1268.07 43.74Q1268.07 44.97 1267.57 46.02Q1267.07 47.07 1266.20 47.66Q1265.32 48.24 1264.32 48.24Q1262.83 48.24 1261.70 46.98Q1260.57 45.71 1260.57 43.74Q1260.57 41.75 1261.70 40.49Q1262.83 39.23 1264.32 39.23Q1265.32 39.23 1266.20 39.82Q1267.07 40.40 1267.57 41.45Q1268.07 42.50 1268.07 43.74ZM1267.45 43.74Q1267.45 42.24 1266.58 41.04Q1265.70 39.85 1264.32 39.85Q1263.02 39.85 1262.10 40.99Q1261.19 42.13 1261.19 43.74Q1261.19 45.45 1262.15 46.54Q1263.11 47.63 1264.32 47.63Q1265.70 47.63 1266.58 46.44Q1267.45 45.25 1267.45 43.74ZM1276.59 40.05V45.19Q1276.59 46.48 1275.72 47.36Q1274.86 48.24 1273.64 48.24Q1272.82 48.24 1272.18 47.88Q1271.54 47.52 1271.10 46.80Q1270.65 46.07 1270.65 45.19V40.05H1270.13Q1269.91 40.05 1269.81 39.96Q1269.72 39.88 1269.72 39.74Q1269.72 39.60 1269.82 39.50Q1269.91 39.43 1270.13 39.43H1272.40Q1272.62 39.43 1272.71 39.51Q1272.81 39.60 1272.81 39.74Q1272.81 39.88 1272.71 39.96Q1272.62 40.05 1272.40 40.05H1271.26V45.19Q1271.26 46.21 1271.96 46.92Q1272.66 47.63 1273.61 47.63Q1274.22 47.63 1274.72 47.35Q1275.22 47.07 1275.60 46.49Q1275.97 45.91 1275.97 45.19V40.05H1274.84Q1274.62 40.05 1274.52 39.96Q1274.43 39.88 1274.43 39.74Q1274.43 39.60 1274.52 39.51Q1274.62 39.43 1274.84 39.43H1277.11Q1277.33 39.43 1277.42 39.51Q1277.52 39.60 1277.52 39.74Q1277.52 39.88 1277.42 39.96Q1277.33 40.05 1277.11 40.05ZM1280.91 44.18V47.38H1282.04Q1282.27 47.38 1282.37 47.47Q1282.46 47.55 1282.46 47.69Q1282.46 47.82 1282.37 47.91Q1282.27 48.00 1282.04 48.00H1279.47Q1279.25 48.00 1279.15 47.91Q1279.06 47.82 1279.06 47.69Q1279.06 47.55 1279.15 47.47Q1279.25 47.38 1279.47 47.38H1280.29V40.05H1279.47Q1279.25 40.05 1279.15 39.96Q1279.06 39.88 1279.06 39.74Q1279.06 39.60 1279.15 39.51Q1279.25 39.43 1279.47 39.43H1283.19Q1284.34 39.43 1285.12 40.16Q1285.91 40.89 1285.91 41.80Q1285.91 42.46 1285.42 43.05Q1284.94 43.63 1283.80 44.02Q1284.45 44.47 1284.92 45.04Q1285.39 45.61 1286.42 47.38H1286.89Q1287.11 47.38 1287.21 47.47Q1287.30 47.55 1287.30 47.69Q1287.30 47.82 1287.21 47.91Q1287.11 48.00 1286.89 48.00H1286.07Q1284.93 45.96 1284.30 45.26Q1283.68 44.56 1282.86 44.18ZM1280.91 43.56H1282.59Q1283.39 43.56 1284.05 43.27Q1284.70 42.98 1285.00 42.58Q1285.30 42.18 1285.30 41.77Q1285.30 41.16 1284.68 40.60Q1284.06 40.05 1283.17 40.05H1280.91ZM1294.92 40.27V39.84Q1294.92 39.62 1295.00 39.53Q1295.09 39.43 1295.23 39.43Q1295.37 39.43 1295.45 39.53Q1295.54 39.62 1295.54 39.84V41.55Q1295.54 41.77 1295.45 41.87Q1295.37 41.96 1295.23 41.96Q1295.10 41.96 1295.02 41.88Q1294.93 41.79 1294.92 41.59Q1294.88 40.98 1294.25 40.50Q1293.40 39.85 1292.32 39.85Q1291.61 39.85 1290.98 40.16Q1290.51 40.39 1290.23 40.72Q1289.75 41.29 1289.46 41.99Q1289.26 42.50 1289.26 43.14V44.22Q1289.26 45.60 1290.25 46.61Q1291.25 47.63 1292.57 47.63Q1293.36 47.63 1293.99 47.28Q1294.61 46.94 1295.20 46.24Q1295.32 46.09 1295.48 46.09Q1295.61 46.09 1295.69 46.17Q1295.77 46.25 1295.77 46.37Q1295.77 46.54 1295.45 46.89Q1294.85 47.56 1294.10 47.90Q1293.35 48.24 1292.58 48.24Q1291.92 48.24 1291.23 47.99Q1290.70 47.79 1290.36 47.52Q1290.01 47.26 1289.51 46.63Q1289.01 46.01 1288.83 45.48Q1288.64 44.95 1288.64 44.31V43.06Q1288.64 42.15 1289.13 41.20Q1289.62 40.25 1290.46 39.74Q1291.31 39.23 1292.30 39.23Q1293.82 39.23 1294.92 40.27ZM1299.51 43.86V47.38H1304.24V45.57Q1304.24 45.35 1304.33 45.25Q1304.41 45.16 1304.55 45.16Q1304.69 45.16 1304.77 45.25Q1304.86 45.35 1304.86 45.57V48.00H1298.07Q1297.85 48.00 1297.75 47.91Q1297.66 47.82 1297.66 47.69Q1297.66 47.55 1297.75 47.47Q1297.85 47.38 1298.07 47.38H1298.90V40.05H1298.07Q1297.85 40.05 1297.75 39.96Q1297.66 39.88 1297.66 39.74Q1297.66 39.60 1297.75 39.51Q1297.85 39.43 1298.07 39.43H1304.54V41.55Q1304.54 41.77 1304.45 41.86Q1304.37 41.96 1304.23 41.96Q1304.09 41.96 1304.01 41.86Q1303.92 41.77 1303.92 41.55V40.05H1299.51V43.25H1301.72V42.55Q1301.72 42.33 1301.80 42.24Q1301.89 42.14 1302.03 42.14Q1302.16 42.14 1302.25 42.24Q1302.34 42.33 1302.34 42.55V44.56Q1302.34 44.78 1302.25 44.87Q1302.16 44.97 1302.03 44.97Q1301.89 44.97 1301.80 44.87Q1301.72 44.78 1301.72 44.56V43.86Z" fill="#515660"/>
<path aria-label="Photo &amp; video processing." d="M73.77 485.00V468.54H79.98Q81.62 468.54 82.49 468.69Q83.70 468.90 84.52 469.46Q85.34 470.03 85.84 471.05Q86.34 472.07 86.34 473.30Q86.34 475.40 85.00 476.85Q83.67 478.31 80.18 478.31H75.95V485.00ZM75.95 476.36H80.21Q82.32 476.36 83.21 475.58Q84.10 474.79 84.10 473.37Q84.10 472.33 83.57 471.60Q83.05 470.86 82.20 470.62Q81.65 470.48 80.16 470.48H75.95ZM88.86 485.00V468.54H90.88V474.44Q92.29 472.80 94.45 472.80Q95.77 472.80 96.75 473.33Q97.73 473.85 98.15 474.77Q98.57 475.69 98.57 477.44V485.00H96.55V477.44Q96.55 475.93 95.89 475.24Q95.24 474.54 94.03 474.54Q93.14 474.54 92.34 475.01Q91.55 475.48 91.22 476.27Q90.88 477.07 90.88 478.48V485.00ZM100.90 479.04Q100.90 475.72 102.74 474.13Q104.28 472.80 106.49 472.80Q108.95 472.80 110.51 474.42Q112.07 476.03 112.07 478.87Q112.07 481.17 111.38 482.49Q110.69 483.81 109.37 484.54Q108.05 485.27 106.49 485.27Q103.98 485.27 102.44 483.66Q100.90 482.06 100.90 479.04ZM102.97 479.04Q102.97 481.33 103.97 482.47Q104.97 483.61 106.49 483.61Q107.99 483.61 108.99 482.46Q109.99 481.32 109.99 478.97Q109.99 476.76 108.99 475.62Q107.98 474.48 106.49 474.48Q104.97 474.48 103.97 475.61Q102.97 476.75 102.97 479.04ZM118.85 483.19 119.15 484.98Q118.29 485.16 117.62 485.16Q116.52 485.16 115.91 484.81Q115.30 484.46 115.06 483.89Q114.81 483.33 114.81 481.51V474.65H113.33V473.07H114.81V470.12L116.82 468.91V473.07H118.85V474.65H116.82V481.62Q116.82 482.48 116.93 482.73Q117.03 482.98 117.28 483.12Q117.52 483.27 117.97 483.27Q118.30 483.27 118.85 483.19ZM120.08 479.04Q120.08 475.72 121.92 474.13Q123.46 472.80 125.67 472.80Q128.13 472.80 129.69 474.42Q131.25 476.03 131.25 478.87Q131.25 481.17 130.56 482.49Q129.87 483.81 128.55 484.54Q127.23 485.27 125.67 485.27Q123.17 485.27 121.62 483.66Q120.08 482.06 120.08 479.04ZM122.16 479.04Q122.16 481.33 123.15 482.47Q124.15 483.61 125.67 483.61Q127.18 483.61 128.17 482.46Q129.17 481.32 129.17 478.97Q129.17 476.76 128.17 475.62Q127.16 474.48 125.67 474.48Q124.15 474.48 123.15 475.61Q122.16 476.75 122.16 479.04ZM149.42 483.06Q148.42 484.17 147.24 484.72Q146.06 485.28 144.69 485.28Q142.17 485.28 140.69 483.57Q139.48 482.18 139.48 480.46Q139.48 478.94 140.47 477.71Q141.45 476.48 143.40 475.54Q142.29 474.26 141.92 473.47Q141.55 472.67 141.55 471.93Q141.55 470.45 142.71 469.35Q143.88 468.26 145.64 468.26Q147.32 468.26 148.40 469.29Q149.47 470.32 149.47 471.77Q149.47 474.12 146.36 475.78L149.31 479.54Q149.82 478.55 150.10 477.25L152.20 477.70Q151.66 479.86 150.74 481.25Q151.87 482.75 153.31 483.78L151.95 485.38Q150.73 484.60 149.42 483.06ZM145.31 474.48Q146.63 473.70 147.01 473.12Q147.40 472.53 147.40 471.83Q147.40 470.98 146.87 470.45Q146.33 469.92 145.54 469.92Q144.72 469.92 144.17 470.45Q143.63 470.97 143.63 471.74Q143.63 472.12 143.82 472.54Q144.02 472.96 144.41 473.43ZM148.15 481.46 144.45 476.87Q142.81 477.85 142.24 478.68Q141.66 479.52 141.66 480.34Q141.66 481.34 142.46 482.42Q143.26 483.50 144.72 483.50Q145.63 483.50 146.60 482.93Q147.57 482.36 148.15 481.46ZM165.06 485.00 160.52 473.07H162.65L165.21 480.22Q165.63 481.37 165.98 482.62Q166.25 481.68 166.73 480.35L169.38 473.07H171.46L166.94 485.00ZM173.25 470.86V468.54H175.28V470.86ZM173.25 485.00V473.07H175.28V485.00ZM186.09 485.00V483.50Q184.96 485.27 182.75 485.27Q181.33 485.27 180.13 484.48Q178.94 483.70 178.28 482.29Q177.62 480.88 177.62 479.05Q177.62 477.26 178.22 475.81Q178.81 474.35 180.00 473.58Q181.19 472.80 182.67 472.80Q183.74 472.80 184.59 473.26Q185.43 473.71 185.96 474.44V468.54H187.97V485.00ZM179.70 479.05Q179.70 481.34 180.67 482.47Q181.63 483.61 182.95 483.61Q184.27 483.61 185.20 482.52Q186.12 481.44 186.12 479.22Q186.12 476.77 185.18 475.62Q184.24 474.48 182.86 474.48Q181.51 474.48 180.60 475.58Q179.70 476.68 179.70 479.05ZM199.31 481.16 201.40 481.42Q200.90 483.25 199.57 484.26Q198.23 485.27 196.15 485.27Q193.54 485.27 192.00 483.66Q190.47 482.05 190.47 479.14Q190.47 476.13 192.02 474.47Q193.57 472.80 196.04 472.80Q198.43 472.80 199.95 474.43Q201.46 476.06 201.46 479.01Q201.46 479.19 201.45 479.55H192.56Q192.67 481.52 193.67 482.56Q194.67 483.61 196.16 483.61Q197.28 483.61 198.06 483.02Q198.85 482.44 199.31 481.16ZM192.67 477.89H199.33Q199.20 476.39 198.57 475.63Q197.60 474.47 196.06 474.47Q194.67 474.47 193.72 475.40Q192.77 476.33 192.67 477.89ZM203.18 479.04Q203.18 475.72 205.02 474.13Q206.56 472.80 208.78 472.80Q211.24 472.80 212.80 474.42Q214.36 476.03 214.36 478.87Q214.36 481.17 213.67 482.49Q212.98 483.81 211.66 484.54Q210.34 485.27 208.78 485.27Q206.27 485.27 204.73 483.66Q203.18 482.06 203.18 479.04ZM205.26 479.04Q205.26 481.33 206.26 482.47Q207.26 483.61 208.78 483.61Q210.28 483.61 211.28 482.46Q212.28 481.32 212.28 478.97Q212.28 476.76 211.27 475.62Q210.27 474.48 208.78 474.48Q207.26 474.48 206.26 475.61Q205.26 476.75 205.26 479.04ZM223.12 489.57V473.07H224.96V474.62Q225.61 473.71 226.43 473.26Q227.25 472.80 228.42 472.80Q229.95 472.80 231.11 473.59Q232.28 474.38 232.88 475.81Q233.47 477.24 233.47 478.95Q233.47 480.78 232.81 482.24Q232.16 483.71 230.91 484.49Q229.65 485.27 228.27 485.27Q227.26 485.27 226.46 484.84Q225.66 484.42 225.14 483.76V489.57ZM224.95 479.10Q224.95 481.41 225.88 482.51Q226.81 483.61 228.14 483.61Q229.48 483.61 230.45 482.47Q231.41 481.33 231.41 478.94Q231.41 476.66 230.47 475.52Q229.53 474.39 228.23 474.39Q226.94 474.39 225.94 475.59Q224.95 476.80 224.95 479.10ZM235.89 485.00V473.07H237.71V474.88Q238.40 473.61 238.99 473.21Q239.58 472.80 240.29 472.80Q241.31 472.80 242.37 473.46L241.67 475.33Q240.93 474.89 240.19 474.89Q239.52 474.89 239.00 475.29Q238.47 475.69 238.24 476.40Q237.91 477.48 237.91 478.76V485.00ZM242.82 479.04Q242.82 475.72 244.66 474.13Q246.20 472.80 248.41 472.80Q250.87 472.80 252.43 474.42Q253.99 476.03 253.99 478.87Q253.99 481.17 253.30 482.49Q252.61 483.81 251.29 484.54Q249.97 485.27 248.41 485.27Q245.90 485.27 244.36 483.66Q242.82 482.06 242.82 479.04ZM244.89 479.04Q244.89 481.33 245.89 482.47Q246.89 483.61 248.41 483.61Q249.91 483.61 250.91 482.46Q251.91 481.32 251.91 478.97Q251.91 476.76 250.91 475.62Q249.90 474.48 248.41 474.48Q246.89 474.48 245.89 475.61Q244.89 476.75 244.89 479.04ZM264.14 480.63 266.13 480.89Q265.80 482.94 264.46 484.11Q263.12 485.27 261.17 485.27Q258.72 485.27 257.23 483.67Q255.74 482.07 255.74 479.08Q255.74 477.15 256.38 475.70Q257.02 474.25 258.33 473.53Q259.64 472.80 261.18 472.80Q263.12 472.80 264.36 473.79Q265.59 474.77 265.94 476.58L263.97 476.88Q263.69 475.68 262.98 475.07Q262.27 474.47 261.26 474.47Q259.73 474.47 258.77 475.56Q257.82 476.66 257.82 479.03Q257.82 481.43 258.74 482.52Q259.66 483.61 261.14 483.61Q262.33 483.61 263.13 482.88Q263.93 482.15 264.14 480.63ZM276.02 481.16 278.11 481.42Q277.62 483.25 276.28 484.26Q274.95 485.27 272.87 485.27Q270.25 485.27 268.72 483.66Q267.19 482.05 267.19 479.14Q267.19 476.13 268.74 474.47Q270.29 472.80 272.76 472.80Q275.15 472.80 276.66 474.43Q278.18 476.06 278.18 479.01Q278.18 479.19 278.17 479.55H269.27Q269.39 481.52 270.39 482.56Q271.39 483.61 272.88 483.61Q273.99 483.61 274.78 483.02Q275.56 482.44 276.02 481.16ZM269.39 477.89H276.05Q275.91 476.39 275.28 475.63Q274.32 474.47 272.78 474.47Q271.39 474.47 270.44 475.40Q269.49 476.33 269.39 477.89ZM279.84 481.44 281.84 481.13Q282.01 482.33 282.78 482.97Q283.55 483.61 284.93 483.61Q286.32 483.61 287.00 483.04Q287.67 482.47 287.67 481.71Q287.67 481.02 287.07 480.63Q286.66 480.36 285.01 479.95Q282.78 479.38 281.93 478.97Q281.07 478.56 280.62 477.84Q280.18 477.12 280.18 476.24Q280.18 475.44 280.54 474.76Q280.91 474.08 281.54 473.63Q282.01 473.29 282.82 473.05Q283.64 472.80 284.57 472.80Q285.97 472.80 287.04 473.21Q288.10 473.61 288.60 474.30Q289.11 474.99 289.30 476.15L287.32 476.42Q287.19 475.50 286.54 474.98Q285.90 474.47 284.72 474.47Q283.32 474.47 282.73 474.93Q282.13 475.39 282.13 476.00Q282.13 476.40 282.38 476.71Q282.63 477.04 283.16 477.25Q283.46 477.36 284.94 477.77Q287.09 478.34 287.93 478.71Q288.78 479.07 289.26 479.77Q289.75 480.46 289.75 481.50Q289.75 482.51 289.16 483.40Q288.57 484.29 287.46 484.78Q286.34 485.27 284.94 485.27Q282.62 485.27 281.40 484.30Q280.18 483.34 279.84 481.44ZM291.34 481.44 293.34 481.13Q293.51 482.33 294.28 482.97Q295.05 483.61 296.43 483.61Q297.82 483.61 298.50 483.04Q299.17 482.47 299.17 481.71Q299.17 481.02 298.57 480.63Q298.16 480.36 296.51 479.95Q294.28 479.38 293.43 478.97Q292.57 478.56 292.12 477.84Q291.68 477.12 291.68 476.24Q291.68 475.44 292.04 474.76Q292.41 474.08 293.04 473.63Q293.51 473.29 294.32 473.05Q295.14 472.80 296.07 472.80Q297.47 472.80 298.54 473.21Q299.60 473.61 300.10 474.30Q300.61 474.99 300.80 476.15L298.82 476.42Q298.69 475.50 298.04 474.98Q297.40 474.47 296.22 474.47Q294.82 474.47 294.23 474.93Q293.63 475.39 293.63 476.00Q293.63 476.40 293.88 476.71Q294.13 477.04 294.66 477.25Q294.96 477.36 296.44 477.77Q298.59 478.34 299.43 478.71Q300.28 479.07 300.76 479.77Q301.25 480.46 301.25 481.50Q301.25 482.51 300.66 483.40Q300.07 484.29 298.96 484.78Q297.84 485.27 296.44 485.27Q294.12 485.27 292.90 484.30Q291.68 483.34 291.34 481.44ZM303.66 470.86V468.54H305.68V470.86ZM303.66 485.00V473.07H305.68V485.00ZM308.76 485.00V473.07H310.58V474.77Q311.89 472.80 314.38 472.80Q315.45 472.80 316.36 473.19Q317.26 473.58 317.71 474.21Q318.16 474.84 318.34 475.70Q318.45 476.26 318.45 477.67V485.00H316.43V477.75Q316.43 476.51 316.20 475.90Q315.96 475.29 315.36 474.92Q314.76 474.56 313.95 474.56Q312.66 474.56 311.72 475.38Q310.78 476.20 310.78 478.49V485.00ZM321.18 485.99 323.15 486.28Q323.27 487.19 323.83 487.61Q324.58 488.17 325.89 488.17Q327.29 488.17 328.05 487.61Q328.82 487.04 329.09 486.03Q329.25 485.42 329.23 483.44Q327.91 485.00 325.93 485.00Q323.47 485.00 322.12 483.23Q320.78 481.45 320.78 478.97Q320.78 477.26 321.40 475.82Q322.01 474.38 323.19 473.59Q324.36 472.80 325.94 472.80Q328.05 472.80 329.42 474.51V473.07H331.29V483.38Q331.29 486.17 330.72 487.33Q330.15 488.49 328.93 489.17Q327.70 489.84 325.90 489.84Q323.76 489.84 322.45 488.88Q321.14 487.92 321.18 485.99ZM322.85 478.82Q322.85 481.17 323.79 482.25Q324.72 483.33 326.12 483.33Q327.52 483.33 328.46 482.25Q329.40 481.18 329.40 478.89Q329.40 476.70 328.43 475.59Q327.46 474.48 326.09 474.48Q324.74 474.48 323.80 475.57Q322.85 476.67 322.85 478.82ZM334.92 485.00V482.70H337.22V485.00Z" fill="#101114"/>
<path aria-label="Codex / Claude Code" d="M1108.52 479.23 1110.70 479.78Q1110.02 482.46 1108.24 483.87Q1106.46 485.28 1103.88 485.28Q1101.22 485.28 1099.55 484.20Q1097.89 483.11 1097.02 481.06Q1096.15 479.00 1096.15 476.64Q1096.15 474.07 1097.13 472.16Q1098.11 470.24 1099.92 469.25Q1101.74 468.26 1103.92 468.26Q1106.39 468.26 1108.07 469.51Q1109.76 470.77 1110.42 473.05L1108.27 473.56Q1107.70 471.76 1106.61 470.94Q1105.52 470.12 1103.87 470.12Q1101.97 470.12 1100.70 471.03Q1099.42 471.94 1098.91 473.47Q1098.39 475.00 1098.39 476.63Q1098.39 478.73 1099.00 480.30Q1099.62 481.87 1100.91 482.64Q1102.20 483.42 1103.70 483.42Q1105.53 483.42 1106.80 482.36Q1108.07 481.31 1108.52 479.23ZM1112.37 479.04Q1112.37 475.72 1114.22 474.13Q1115.75 472.80 1117.97 472.80Q1120.43 472.80 1121.99 474.42Q1123.55 476.03 1123.55 478.87Q1123.55 481.17 1122.86 482.49Q1122.17 483.81 1120.85 484.54Q1119.53 485.27 1117.97 485.27Q1115.46 485.27 1113.92 483.66Q1112.37 482.06 1112.37 479.04ZM1114.45 479.04Q1114.45 481.33 1115.45 482.47Q1116.45 483.61 1117.97 483.61Q1119.47 483.61 1120.47 482.46Q1121.47 481.32 1121.47 478.97Q1121.47 476.76 1120.47 475.62Q1119.46 474.48 1117.97 474.48Q1116.45 474.48 1115.45 475.61Q1114.45 476.75 1114.45 479.04ZM1133.66 485.00V483.50Q1132.52 485.27 1130.32 485.27Q1128.89 485.27 1127.70 484.48Q1126.50 483.70 1125.84 482.29Q1125.19 480.88 1125.19 479.05Q1125.19 477.26 1125.78 475.81Q1126.38 474.35 1127.57 473.58Q1128.76 472.80 1130.23 472.80Q1131.31 472.80 1132.15 473.26Q1132.99 473.71 1133.52 474.44V468.54H1135.53V485.00ZM1127.27 479.05Q1127.27 481.34 1128.23 482.47Q1129.20 483.61 1130.51 483.61Q1131.84 483.61 1132.76 482.52Q1133.69 481.44 1133.69 479.22Q1133.69 476.77 1132.75 475.62Q1131.80 474.48 1130.42 474.48Q1129.07 474.48 1128.17 475.58Q1127.27 476.68 1127.27 479.05ZM1146.87 481.16 1148.96 481.42Q1148.47 483.25 1147.13 484.26Q1145.80 485.27 1143.72 485.27Q1141.10 485.27 1139.57 483.66Q1138.04 482.05 1138.04 479.14Q1138.04 476.13 1139.58 474.47Q1141.13 472.80 1143.61 472.80Q1146.00 472.80 1147.51 474.43Q1149.03 476.06 1149.03 479.01Q1149.03 479.19 1149.02 479.55H1140.12Q1140.24 481.52 1141.24 482.56Q1142.24 483.61 1143.73 483.61Q1144.84 483.61 1145.63 483.02Q1146.41 482.44 1146.87 481.16ZM1140.24 477.89H1146.90Q1146.76 476.39 1146.13 475.63Q1145.17 474.47 1143.63 474.47Q1142.24 474.47 1141.29 475.40Q1140.34 476.33 1140.24 477.89ZM1150.15 485.00 1154.51 478.80 1150.48 473.07H1153.01L1154.84 475.87Q1155.35 476.67 1155.67 477.21Q1156.16 476.46 1156.58 475.89L1158.59 473.07H1161.00L1156.88 478.69L1161.32 485.00H1158.83L1156.39 481.29L1155.73 480.29L1152.60 485.00ZM1167.87 485.28 1172.65 468.26H1174.26L1169.50 485.28ZM1194.18 479.23 1196.35 479.78Q1195.67 482.46 1193.89 483.87Q1192.11 485.28 1189.54 485.28Q1186.88 485.28 1185.21 484.20Q1183.54 483.11 1182.67 481.06Q1181.80 479.00 1181.80 476.64Q1181.80 474.07 1182.78 472.16Q1183.77 470.24 1185.58 469.25Q1187.39 468.26 1189.57 468.26Q1192.04 468.26 1193.73 469.51Q1195.41 470.77 1196.07 473.05L1193.93 473.56Q1193.36 471.76 1192.27 470.94Q1191.18 470.12 1189.53 470.12Q1187.63 470.12 1186.35 471.03Q1185.08 471.94 1184.56 473.47Q1184.05 475.00 1184.05 476.63Q1184.05 478.73 1184.66 480.30Q1185.27 481.87 1186.56 482.64Q1187.85 483.42 1189.36 483.42Q1191.19 483.42 1192.46 482.36Q1193.73 481.31 1194.18 479.23ZM1198.74 485.00V468.54H1200.76V485.00ZM1211.67 483.53Q1210.55 484.48 1209.51 484.88Q1208.47 485.27 1207.28 485.27Q1205.32 485.27 1204.26 484.31Q1203.21 483.35 1203.21 481.86Q1203.21 480.98 1203.60 480.26Q1204.00 479.53 1204.65 479.09Q1205.29 478.65 1206.10 478.43Q1206.70 478.27 1207.90 478.13Q1210.35 477.83 1211.50 477.43Q1211.52 477.02 1211.52 476.90Q1211.52 475.67 1210.94 475.16Q1210.17 474.48 1208.64 474.48Q1207.21 474.48 1206.54 474.98Q1205.86 475.48 1205.53 476.75L1203.55 476.48Q1203.82 475.21 1204.44 474.43Q1205.06 473.65 1206.23 473.22Q1207.39 472.80 1208.93 472.80Q1210.46 472.80 1211.42 473.16Q1212.37 473.52 1212.82 474.07Q1213.27 474.61 1213.45 475.44Q1213.55 475.96 1213.55 477.31V480.00Q1213.55 482.82 1213.68 483.57Q1213.81 484.31 1214.19 485.00H1212.08Q1211.76 484.37 1211.67 483.53ZM1211.50 479.01Q1210.40 479.46 1208.20 479.78Q1206.96 479.96 1206.44 480.18Q1205.92 480.41 1205.64 480.84Q1205.36 481.27 1205.36 481.80Q1205.36 482.61 1205.97 483.15Q1206.59 483.69 1207.77 483.69Q1208.93 483.69 1209.84 483.18Q1210.75 482.66 1211.18 481.78Q1211.50 481.09 1211.50 479.76ZM1224.50 485.00V483.25Q1223.11 485.27 1220.71 485.27Q1219.66 485.27 1218.74 484.87Q1217.83 484.46 1217.38 483.85Q1216.94 483.24 1216.76 482.35Q1216.64 481.75 1216.64 480.46V473.07H1218.66V479.69Q1218.66 481.27 1218.78 481.82Q1218.97 482.62 1219.59 483.07Q1220.21 483.53 1221.12 483.53Q1222.03 483.53 1222.83 483.06Q1223.62 482.60 1223.95 481.79Q1224.29 480.99 1224.29 479.46V473.07H1226.31V485.00ZM1237.21 485.00V483.50Q1236.08 485.27 1233.88 485.27Q1232.45 485.27 1231.25 484.48Q1230.06 483.70 1229.40 482.29Q1228.74 480.88 1228.74 479.05Q1228.74 477.26 1229.34 475.81Q1229.93 474.35 1231.12 473.58Q1232.31 472.80 1233.79 472.80Q1234.86 472.80 1235.71 473.26Q1236.55 473.71 1237.08 474.44V468.54H1239.09V485.00ZM1230.82 479.05Q1230.82 481.34 1231.79 482.47Q1232.75 483.61 1234.07 483.61Q1235.39 483.61 1236.32 482.52Q1237.25 481.44 1237.25 479.22Q1237.25 476.77 1236.30 475.62Q1235.36 474.48 1233.98 474.48Q1232.63 474.48 1231.73 475.58Q1230.82 476.68 1230.82 479.05ZM1250.43 481.16 1252.52 481.42Q1252.02 483.25 1250.69 484.26Q1249.35 485.27 1247.27 485.27Q1244.66 485.27 1243.12 483.66Q1241.59 482.05 1241.59 479.14Q1241.59 476.13 1243.14 474.47Q1244.69 472.80 1247.16 472.80Q1249.55 472.80 1251.07 474.43Q1252.59 476.06 1252.59 479.01Q1252.59 479.19 1252.57 479.55H1243.68Q1243.79 481.52 1244.79 482.56Q1245.79 483.61 1247.29 483.61Q1248.40 483.61 1249.18 483.02Q1249.97 482.44 1250.43 481.16ZM1243.79 477.89H1250.45Q1250.32 476.39 1249.69 475.63Q1248.72 474.47 1247.18 474.47Q1245.79 474.47 1244.84 475.40Q1243.89 476.33 1243.79 477.89ZM1273.45 479.23 1275.63 479.78Q1274.95 482.46 1273.17 483.87Q1271.39 485.28 1268.81 485.28Q1266.15 485.28 1264.48 484.20Q1262.82 483.11 1261.95 481.06Q1261.08 479.00 1261.08 476.64Q1261.08 474.07 1262.06 472.16Q1263.04 470.24 1264.86 469.25Q1266.67 468.26 1268.85 468.26Q1271.32 468.26 1273.00 469.51Q1274.69 470.77 1275.35 473.05L1273.21 473.56Q1272.63 471.76 1271.54 470.94Q1270.45 470.12 1268.80 470.12Q1266.90 470.12 1265.63 471.03Q1264.36 471.94 1263.84 473.47Q1263.32 475.00 1263.32 476.63Q1263.32 478.73 1263.93 480.30Q1264.55 481.87 1265.84 482.64Q1267.13 483.42 1268.63 483.42Q1270.46 483.42 1271.73 482.36Q1273.00 481.31 1273.45 479.23ZM1277.30 479.04Q1277.30 475.72 1279.15 474.13Q1280.68 472.80 1282.90 472.80Q1285.36 472.80 1286.92 474.42Q1288.48 476.03 1288.48 478.87Q1288.48 481.17 1287.79 482.49Q1287.10 483.81 1285.78 484.54Q1284.46 485.27 1282.90 485.27Q1280.39 485.27 1278.85 483.66Q1277.30 482.06 1277.30 479.04ZM1279.38 479.04Q1279.38 481.33 1280.38 482.47Q1281.38 483.61 1282.90 483.61Q1284.40 483.61 1285.40 482.46Q1286.40 481.32 1286.40 478.97Q1286.40 476.76 1285.40 475.62Q1284.39 474.48 1282.90 474.48Q1281.38 474.48 1280.38 475.61Q1279.38 476.75 1279.38 479.04ZM1298.59 485.00V483.50Q1297.45 485.27 1295.25 485.27Q1293.82 485.27 1292.63 484.48Q1291.43 483.70 1290.78 482.29Q1290.12 480.88 1290.12 479.05Q1290.12 477.26 1290.71 475.81Q1291.31 474.35 1292.50 473.58Q1293.69 472.80 1295.16 472.80Q1296.24 472.80 1297.08 473.26Q1297.92 473.71 1298.45 474.44V468.54H1300.46V485.00ZM1292.20 479.05Q1292.20 481.34 1293.16 482.47Q1294.13 483.61 1295.44 483.61Q1296.77 483.61 1297.69 482.52Q1298.62 481.44 1298.62 479.22Q1298.62 476.77 1297.68 475.62Q1296.73 474.48 1295.35 474.48Q1294.00 474.48 1293.10 475.58Q1292.20 476.68 1292.20 479.05ZM1311.80 481.16 1313.89 481.42Q1313.40 483.25 1312.06 484.26Q1310.73 485.27 1308.65 485.27Q1306.03 485.27 1304.50 483.66Q1302.97 482.05 1302.97 479.14Q1302.97 476.13 1304.52 474.47Q1306.07 472.80 1308.54 472.80Q1310.93 472.80 1312.44 474.43Q1313.96 476.06 1313.96 479.01Q1313.96 479.19 1313.95 479.55H1305.05Q1305.17 481.52 1306.17 482.56Q1307.17 483.61 1308.66 483.61Q1309.77 483.61 1310.56 483.02Q1311.34 482.44 1311.80 481.16ZM1305.17 477.89H1311.83Q1311.69 476.39 1311.06 475.63Q1310.10 474.47 1308.56 474.47Q1307.17 474.47 1306.22 475.40Q1305.27 476.33 1305.17 477.89Z" fill="#101114"/>
</svg>
